<svg width="20" height="17" viewBox="0 0 20 17" fill="none" xmlns="http://www.w3.org/2000/svg">
<path d="M1.75 7.75018H16.7121L10.9829 2.29318C10.6829 2.00743 10.6713 1.53268 10.957 1.23268C11.2424 0.933058 11.7171 0.921058 12.0175 1.20681L18.5605 7.43931C18.8436 7.72281 19 8.09931 19 8.50018C19 8.90068 18.8436 9.27756 18.5474 9.57343L12.0171 15.7932C11.872 15.9316 11.686 16.0002 11.5 16.0002C11.302 16.0002 11.104 15.9222 10.9566 15.7673C10.6709 15.4673 10.6825 14.9929 10.9825 14.7072L16.7357 9.25018H1.75C1.336 9.25018 1 8.91418 1 8.50018C1 8.08618 1.336 7.75018 1.75 7.75018Z" fill="white" stroke="white" stroke-width="0.5"/>
</svg>
