<svg width="28" height="28" viewBox="0 0 28 28" fill="none" xmlns="http://www.w3.org/2000/svg">
<path d="M11.6281 3.20245C6.53108 3.40659 2.70834 7.84665 3.26901 12.8991C3.7787 17.6964 7.95823 21.1668 12.9023 20.7075C17.6935 20.1972 21.2104 16.0123 20.7007 11.0619C20.191 6.21352 16.0624 2.99831 11.6281 3.20245ZM18.9677 20.4523C13.8198 24.5862 7.04077 23.2082 3.52386 18.9723C0.00693804 14.6854 0.108879 8.40804 4.18647 4.27419C8.0092 0.446547 13.8707 -0.0638007 18.1522 2.94728C20.7517 4.78454 22.3317 7.28526 22.7905 10.4494C23.2492 13.6136 22.3827 16.4206 20.3949 18.9723C20.4968 19.0234 20.5987 19.0744 20.6497 19.1765C22.6375 21.1158 24.5744 23.1062 26.5622 25.0455C26.919 25.4028 27.1229 25.811 26.919 26.2703C26.7151 26.9338 25.8486 27.24 25.288 26.7807C25.186 26.6786 25.0841 26.5766 24.9821 26.4745C23.0453 24.5352 21.1084 22.5958 19.1716 20.6565C19.1206 20.6054 19.0697 20.5544 18.9677 20.4523Z" fill="white" stroke="#010507" stroke-width="0.4"/>
</svg>
