<svg width="26" height="26" viewBox="0 0 26 26" fill="none" xmlns="http://www.w3.org/2000/svg">
<path d="M13.0357 7.23567C10.7443 7.23567 8.91112 9.07007 8.91112 11.3121C8.91112 13.6051 10.7443 15.4395 12.9848 15.4395C15.2762 15.4395 17.1093 13.6051 17.1093 11.3121C17.1603 9.07007 15.3271 7.23567 13.0357 7.23567ZM12.832 17.0191C12.6283 17.0191 12.2719 17.0701 11.8645 17.121C9.16572 17.5796 7.17982 19.5669 6.56877 22.2166C6.51785 22.4204 6.56877 22.5223 6.72153 22.6242C8.8602 24 11.2026 24.6115 13.6977 24.4586C15.7345 24.3567 17.5676 23.6943 19.248 22.6242C19.4008 22.5223 19.4517 22.4204 19.4008 22.2675C18.7897 19.1592 16.0909 16.9681 12.832 17.0191ZM9.87861 16.1019C6.67061 13.9108 6.72153 9.68153 8.91112 7.43949C11.1007 5.19745 14.6652 5.09555 16.9057 7.28663C18.0768 8.40765 18.637 9.73249 18.637 11.3121C18.637 13.3503 17.7713 14.9299 16.0909 16.1019C18.4333 17.172 20.0118 18.9045 20.7756 21.3503C23.6272 18.8535 25.3585 14.2675 23.9327 9.57963C22.4051 4.68791 17.9241 1.42675 12.8829 1.52866C7.6381 1.63057 3.15708 5.14649 1.88406 10.1401C0.712888 14.7771 2.59695 19.1083 5.19391 21.3503C6.00864 18.9045 7.53626 17.172 9.87861 16.1019ZM12.0682 0H14.0032C14.0541 0 14.105 0.0509585 14.1559 0.0509585C14.767 0.152869 15.429 0.203828 16.04 0.356694C22.4051 1.8344 26.988 8.05096 25.8168 15.1338C25.4094 17.6815 24.2892 19.9745 22.5069 21.8599C19.2989 25.172 15.378 26.4968 10.8461 25.8344C8.30007 25.4268 6.05956 24.3057 4.17549 22.5733C1.9859 20.535 0.611046 17.9873 0.15276 15.0318C0.101839 14.6752 0.0509207 14.3694 0 14.0127V12.0764C0.0509207 11.6688 0.101839 11.2611 0.15276 10.9045C0.611046 8.35668 1.68038 6.11466 3.4626 4.22931C5.49943 2.03823 8.04547 0.713373 10.9989 0.203819C11.3553 0.0509523 11.7118 0 12.0682 0Z" fill="white"/>
</svg>
