<svg width="34" height="34" viewBox="0 0 34 34" fill="none" xmlns="http://www.w3.org/2000/svg">
<path d="M5.61132 2.6164C5.1996 2.7957 4.94062 3.29375 5.01366 3.77187C5.06679 4.13047 5.49843 4.60195 5.8371 4.66836C5.96327 4.69492 7.34452 4.71484 8.91835 4.71484H11.7805L11.4816 4.92734C10.5387 5.59804 9.9078 6.11601 9.29687 6.74023L8.5996 7.4375H4.81444C2.46366 7.4375 0.936319 7.46406 0.783584 7.5039C0.644131 7.54375 0.444912 7.6832 0.3121 7.83594C-0.0664158 8.2543 -0.0929783 8.77226 0.239053 9.21054C0.564444 9.64219 0.471475 9.6289 3.88476 9.6289C5.5914 9.6289 6.97265 9.64883 6.95937 9.67539C6.95272 9.70859 6.74022 10.1336 6.50116 10.625C5.07343 13.5137 4.66835 16.6215 5.28593 19.809C5.61132 21.4758 6.38163 23.4148 7.26483 24.7695L7.63007 25.334L5.92343 25.3672C4.36952 25.4004 4.19687 25.4137 3.99101 25.5332C3.63905 25.7391 3.4996 25.9781 3.4664 26.4098C3.44647 26.7285 3.4664 26.8348 3.59921 27.0207C3.6789 27.1469 3.83827 27.3129 3.93788 27.3859C4.12382 27.5187 4.20351 27.5254 6.85976 27.5453L9.58905 27.5652L9.89452 27.8508C10.2199 28.1562 11.5148 29.1391 11.6875 29.2121C11.7406 29.232 9.33671 29.2652 6.34179 29.2852C1.33476 29.3184 0.876553 29.325 0.683975 29.4312C0.358584 29.6105 0.179287 29.9227 0.146084 30.341C0.119522 30.7727 0.272256 31.0648 0.657412 31.3238L0.883194 31.4766H10.7512C21.2965 31.4766 21.1305 31.4766 22.6777 31.1445C25.2344 30.5867 27.7246 29.2254 29.6238 27.3395C30.9121 26.0645 31.7156 24.9555 32.5058 23.3684C34.4914 19.3574 34.4914 14.6426 32.5058 10.6316C30.5933 6.78672 27.1867 4.00429 23.1094 2.96172C21.3828 2.52344 21.3961 2.52344 13.1949 2.52344C7.21835 2.53008 5.77069 2.54336 5.61132 2.6164ZM21.0641 4.82109C24.723 5.28593 27.9902 7.39101 29.9492 10.5453C31.1711 12.5242 31.7555 14.6094 31.7555 17C31.7555 18.5937 31.5562 19.7625 31.0316 21.2168C29.8297 24.5504 27.0473 27.3395 23.707 28.5414C21.3629 29.3848 18.8129 29.5109 16.4156 28.8934C12.5574 27.8973 9.36991 25.0152 7.96874 21.25C7.11874 18.9457 6.98593 16.2363 7.61679 13.8789C8.7789 9.52265 12.1723 6.17578 16.5219 5.08672C17.0797 4.94726 17.5844 4.86094 18.4277 4.76133C18.9656 4.69492 20.3269 4.72812 21.0641 4.82109Z" fill="#039FD4"/>
<path d="M17.9895 8.13497C14.7555 8.67951 12.0195 11.0436 10.9637 14.2111C10.6516 15.1408 10.532 15.8979 10.532 17.0334C10.532 19.4838 11.4152 21.5822 13.175 23.342C14.5695 24.7299 16.1699 25.56 18.0559 25.8721C18.9723 26.0182 20.6922 25.9717 21.4891 25.7725C22.6313 25.4869 23.6274 25.0486 24.5703 24.4178C25.2344 23.9729 26.516 22.6779 26.9543 22.0139C28.5746 19.5502 28.9199 16.6416 27.9238 13.8658C26.8813 10.9506 24.0789 8.63966 20.9844 8.13497C20.2274 8.01544 18.7067 8.01544 17.9895 8.13497ZM18.3945 11.7807V13.2682L17.8168 13.5471C17.3652 13.7662 17.1395 13.9322 16.761 14.3108L16.2828 14.7955L14.968 14.3705C14.2375 14.1381 13.6067 13.9322 13.5602 13.9123C13.4871 13.8858 13.5137 13.8061 13.6531 13.5604C14.3305 12.3916 15.5988 11.276 16.834 10.7647C17.2457 10.592 18.109 10.3264 18.3481 10.2998C18.3746 10.2932 18.3945 10.9639 18.3945 11.7807ZM21.5488 10.5455C22.6977 10.8975 23.7137 11.5549 24.5305 12.4779C25.0152 13.0158 25.5332 13.8061 25.4602 13.8791C25.427 13.9057 24.7895 14.1315 24.0391 14.3705L22.6844 14.8022L22.359 14.4369C21.9871 14.0186 21.4094 13.6068 20.9379 13.4209L20.6192 13.2947L20.5992 11.794L20.5859 10.2932L20.7985 10.3397C20.918 10.3596 21.2567 10.4526 21.5488 10.5455ZM20.1543 15.4994C20.7852 15.7983 21.1305 16.3295 21.1305 17.0069C21.1305 17.485 20.9512 17.8901 20.6059 18.2022C19.882 18.8529 18.866 18.7865 18.2352 18.0494C17.7238 17.4584 17.7238 16.542 18.2352 15.951C18.7399 15.36 19.4902 15.1807 20.1543 15.4994ZM14.2242 16.449L15.5988 16.8873L15.6387 17.1928C15.7383 18.0096 15.9043 18.5076 16.3027 19.1651L16.4223 19.3643L15.6055 20.4932C15.1606 21.1108 14.7688 21.642 14.7356 21.6752C14.6027 21.8213 13.9055 20.9381 13.4539 20.0615C13.082 19.3377 12.843 18.5209 12.7567 17.6643C12.6902 17.0334 12.7234 16.0041 12.8098 16.0041C12.8297 16.0041 13.4672 16.2033 14.2242 16.449ZM26.2703 16.4424C26.3633 17.3588 26.1707 18.6006 25.7723 19.5635C25.5199 20.1744 24.9688 21.0643 24.5504 21.5291L24.3246 21.7748L23.5012 20.6393C23.0496 20.0151 22.6578 19.4639 22.6313 19.424C22.5981 19.3709 22.6777 19.1717 22.8106 18.9526C23.0961 18.4877 23.2754 17.9233 23.3352 17.3256L23.3817 16.8873L24.7231 16.449C25.4602 16.21 26.0977 16.0108 26.1442 16.0108C26.1906 16.0041 26.2371 16.1768 26.2703 16.4424ZM18.7266 20.7787C19.1516 20.8783 19.8887 20.8651 20.3535 20.7588C20.5727 20.7057 20.7652 20.6725 20.7918 20.6924C20.8516 20.7256 22.5117 23.0233 22.5117 23.0631C22.5117 23.083 22.266 23.1959 21.9672 23.3088C20.3735 23.9264 18.607 23.9264 17.0199 23.3088C16.7145 23.1959 16.4688 23.0897 16.4688 23.0697C16.4688 23.0565 16.8606 22.5053 17.3387 21.8479C17.9828 20.9647 18.2418 20.6592 18.3215 20.6791C18.3813 20.699 18.5606 20.7455 18.7266 20.7787Z" fill="#039FD4"/>
</svg>
