<svg width="34" height="36" viewBox="0 0 34 36" fill="none" xmlns="http://www.w3.org/2000/svg">
<path d="M12.7531 0.112701C12.0922 0.274418 11.3961 0.682232 10.8476 1.23067C10.1586 1.91973 9.96873 2.33458 9.53982 4.09239L9.18123 5.54082L9.75076 11.7705L10.3203 18.0072L10.1023 20.4119C9.98982 21.7338 9.87732 22.8869 9.85623 22.9713C9.82811 23.133 9.80701 23.133 8.71717 23.133C7.96482 23.133 7.47967 23.0979 7.20545 23.0275C5.92576 22.6971 4.99061 21.7619 4.66014 20.4822C4.58279 20.1799 4.55467 19.6666 4.5617 18.3518V16.6291L4.99764 16.4252C5.79217 16.0455 6.46014 15.2158 6.6992 14.3088C6.86092 13.676 6.85389 7.7627 6.69217 7.43223C6.53748 7.12286 5.41951 5.99786 5.10311 5.82911C4.95545 5.75879 4.77967 5.69551 4.69529 5.69551C4.5617 5.69551 4.55467 5.66036 4.55467 4.42989C4.55467 2.75645 4.60389 2.84786 3.25389 1.94786C2.38201 1.35723 2.14998 1.2377 1.88279 1.21661C1.30623 1.16739 0.757794 1.65958 0.757794 2.22911C0.757794 2.68614 0.9617 2.94629 1.72811 3.45958L2.44529 3.9377V4.81661C2.44529 5.65333 2.43826 5.69551 2.30467 5.69551C2.03748 5.69551 1.70701 5.92051 1.08826 6.53223C0.124981 7.47442 0.195294 7.12989 0.195294 10.7791C0.195294 14.1682 0.209356 14.351 0.603106 15.0752C0.870294 15.5744 1.50311 16.1861 2.01639 16.4252L2.43826 16.6291V18.401C2.44529 20.3486 2.50858 20.8619 2.85311 21.7408C3.38748 23.133 4.60389 24.3354 6.00311 24.8627C6.75545 25.144 7.40936 25.2424 8.59061 25.2424H9.65936L9.42029 27.851L9.18123 30.4596L9.53982 31.908C9.77186 32.8572 9.97576 33.5182 10.1234 33.8205C10.4539 34.4744 11.1992 35.2057 11.8672 35.5291C12.8867 36.0283 12.3383 36.0002 21.4789 36.0002C27.1531 36.0002 29.839 35.9791 30.0922 35.9229C30.7953 35.7822 31.5969 35.3322 32.1453 34.7768C32.8414 34.0807 33.0312 33.6658 33.4601 31.908L33.8187 30.4596L33.2492 24.2299L32.6797 18.0002L33.2492 11.7705L33.8187 5.54082L33.4601 4.09239C33.0383 2.34161 32.8414 1.91973 32.1523 1.23067C31.5898 0.668171 30.9078 0.274418 30.2117 0.105671C29.5578 -0.0419884 13.3929 -0.0419884 12.7531 0.112701ZM29.8883 2.20801C30.6265 2.4752 30.9992 2.93926 31.2453 3.88145C31.3367 4.24004 31.414 4.54239 31.414 4.54942C31.414 4.56348 26.9562 4.57051 21.5 4.57051C16.0508 4.57051 11.5859 4.56348 11.5859 4.54942C11.5859 4.54239 11.6633 4.24004 11.7547 3.88145C12.0008 2.93926 12.3734 2.4752 13.1117 2.20801C13.5054 2.06739 29.4945 2.06739 29.8883 2.20801ZM31.1258 11.7916C30.8656 14.6111 30.6476 16.9174 30.6476 16.9244C30.6406 16.9385 26.5273 16.9455 21.5 16.9455C16.4726 16.9455 12.3594 16.9385 12.3523 16.9244C12.3523 16.9174 12.1344 14.6111 11.8742 11.7916L11.4031 6.67989H21.5H31.5969L31.1258 11.7916ZM4.42811 8.06504L4.69529 8.3252V11.0182C4.69529 13.9994 4.69529 14.0065 4.25233 14.3932C3.80233 14.7869 3.19764 14.7869 2.74764 14.3932C2.30467 14.0065 2.30467 13.9994 2.30467 11.0252V8.33926L2.56483 8.07207L2.82498 7.80489H3.49295H4.16092L4.42811 8.06504ZM30.6476 19.069C30.6476 19.083 30.8656 21.3893 31.1258 24.2018L31.5969 29.3205H21.5H11.4031L11.5929 27.2955C11.6984 26.1846 11.7898 25.2705 11.7898 25.2564C11.7969 25.2494 12.3875 25.2424 13.1187 25.2494H14.4336L14.6375 25.6854C14.9117 26.2549 15.4953 26.8385 16.0929 27.1338C18.4906 28.308 21.2187 26.3111 20.8179 23.6885C20.5367 21.8885 18.8 20.6299 17.0211 20.9322C16.0156 21.108 15.0523 21.8182 14.6375 22.69L14.4336 23.126H13.2031L11.9656 23.133L12.1554 21.108C12.2609 19.9971 12.3523 19.083 12.3523 19.069C12.3594 19.0619 16.4726 19.0549 21.5 19.0549C26.5273 19.0549 30.6406 19.0619 30.6476 19.069ZM18.0828 23.133C18.6031 23.3861 18.8703 24.019 18.6945 24.5604C18.582 24.8838 18.132 25.2916 17.8156 25.3549C17.3867 25.4322 17.0703 25.3268 16.7469 25.0033C16.2758 24.5322 16.2406 23.9205 16.6695 23.4354C17.0633 22.9854 17.5625 22.8799 18.0828 23.133ZM31.3859 31.5564C31.3648 31.6197 31.2945 31.8939 31.2312 32.1682C31.1679 32.4354 31.0695 32.7377 31.0273 32.8361C30.8867 33.1033 30.4578 33.5252 30.1273 33.701L29.832 33.8557L21.6547 33.8768C16.339 33.8838 13.3789 33.8697 13.2101 33.8205C12.8375 33.7221 12.3383 33.3705 12.1133 33.0541C11.9726 32.8502 11.614 31.7463 11.5859 31.444C11.5859 31.4369 16.0508 31.4299 21.507 31.4299C30.9219 31.4299 31.4211 31.4369 31.3859 31.5564Z" fill="#039FD4"/>
<path d="M25.1492 21.0094C22.7164 21.6492 21.8867 24.7289 23.6726 26.5148C24.9523 27.7945 27.0476 27.7945 28.3273 26.5148C29.607 25.2281 29.607 23.1469 28.3273 21.8602C27.4836 21.0234 26.3164 20.707 25.1492 21.0094ZM26.5203 23.1328C27.0406 23.3859 27.3078 24.0187 27.132 24.5602C27.0195 24.8836 26.5695 25.2914 26.2531 25.3547C25.8242 25.432 25.5078 25.3266 25.1843 25.0031C24.7132 24.532 24.6781 23.9203 25.107 23.4352C25.5007 22.9852 26 22.8797 26.5203 23.1328Z" fill="#039FD4"/>
</svg>
