<svg width="36" height="36" viewBox="0 0 36 36" fill="none" xmlns="http://www.w3.org/2000/svg">
<path d="M7.72029 0.210904C3.69841 0.850748 0.674975 3.832 0.0984125 7.7484C-0.330494 10.6453 0.822631 13.6547 3.09373 15.5672C4.38044 16.657 6.03982 17.4164 7.63591 17.6484L8.19138 17.7328L8.88044 21.7125C9.90701 27.6328 9.88591 27.5273 10.1601 28.0898C10.6172 29.025 11.4398 29.7422 12.3961 30.0304C12.6773 30.1148 12.9445 30.1992 13.0008 30.2273C13.057 30.2554 13.1625 30.5297 13.2328 30.832C13.5211 32.0554 14.3718 33.4265 15.3562 34.2632C17.2687 35.8875 19.9828 36.3093 22.2187 35.3461C23.1539 34.9382 23.5547 34.664 24.3281 33.8906C25.1929 33.0257 25.6359 32.3367 25.9875 31.3101C26.3179 30.3328 26.3672 29.7984 26.3672 27.3586C26.3672 25.2632 26.3742 25.1929 26.5289 24.8906C26.7258 24.5039 27.0773 24.2226 27.5133 24.1031C28.1461 23.9343 28.8422 24.2718 29.1656 24.8906L29.3203 25.2V30.1289V35.0507L29.482 35.325C29.8828 36.0281 30.8672 36.0281 31.275 35.325L31.4297 35.0507L31.4156 29.9179L31.3945 24.7851L31.2047 24.307C31.0992 24.0468 30.9234 23.7023 30.8109 23.5336C30.0375 22.4156 28.589 21.7828 27.3023 22.0007C26.0086 22.2257 24.9117 23.1398 24.4547 24.3703C24.314 24.757 24.3 24.9539 24.2578 27.4218C24.2156 29.9109 24.2015 30.0867 24.0539 30.5156C23.5758 31.8797 22.6195 32.9132 21.3398 33.4476C20.1375 33.9539 18.5062 33.8132 17.3179 33.1031C16.7976 32.7937 16.1226 32.1257 15.8062 31.6054C15.5601 31.2047 15.1875 30.2273 15.1875 29.9953C15.1875 29.932 15.3211 29.8195 15.4898 29.7351C15.6515 29.6507 16.0101 29.3554 16.2773 29.0812C17.0297 28.3289 17.3742 27.4922 17.3812 26.4586C17.3883 26.1562 17.0929 24.2718 16.5867 21.3609C16.1508 18.8156 15.8062 16.7273 15.8273 16.7062C15.8554 16.6781 27.2039 14.6601 27.7734 14.5828C28.0547 14.5476 28.4765 14.6672 31.4367 15.6375C33.2718 16.2422 34.8679 16.7343 34.9804 16.7343C35.2968 16.7343 35.6625 16.5093 35.8383 16.2L36 15.9257V8.97887C36 1.38512 36.0211 1.75075 35.5851 1.38512C35.1492 1.0195 35.1914 1.01247 31.4648 2.2359L28.0406 3.3609L19.1039 1.77887C10.6523 0.288248 10.1039 0.196842 9.1406 0.175748C8.5781 0.161685 7.94529 0.175748 7.72029 0.210904ZM18.5976 3.8109L27.0351 5.31559L27.0562 8.95075C27.0633 11.1445 27.0492 12.5859 27.007 12.5859C26.9718 12.5859 25.2351 12.8882 23.1539 13.2539C9.53435 15.6726 9.27419 15.7078 8.19138 15.5953C6.70076 15.4336 5.27341 14.7586 4.15544 13.6828C3.25544 12.8109 2.62966 11.7562 2.31326 10.582C2.10232 9.80153 2.08123 8.2195 2.2781 7.45309C2.77732 5.49137 4.07107 3.88122 5.8781 2.96715C6.96091 2.41872 7.80466 2.24294 9.1406 2.28512C10.0828 2.31325 10.7789 2.42575 18.5976 3.8109ZM33.8906 8.93668C33.8906 13.3945 33.8765 14.2101 33.7922 14.189C33.7429 14.175 32.6812 13.8375 31.4367 13.4297L29.1797 12.6914L29.1937 8.94372L29.2148 5.18903L31.5 4.42965C32.7586 4.01481 33.8062 3.67028 33.8414 3.66325C33.8695 3.65622 33.8906 6.03278 33.8906 8.93668ZM13.739 17.2054C13.7531 17.2757 14.1258 19.3922 14.5547 21.9093L15.3422 26.4937L15.2297 26.8664C15.0961 27.3234 14.7797 27.7242 14.3929 27.9281C14.1679 28.0476 13.9711 28.0828 13.5633 28.0898C13.0922 28.0898 12.9937 28.0687 12.6914 27.8789C12.0023 27.45 12.0375 27.5836 11.1304 22.3593C10.6804 19.807 10.3289 17.6976 10.35 17.6836C10.3781 17.6554 13.3664 17.107 13.5843 17.0929C13.6476 17.0929 13.7179 17.1422 13.739 17.2054Z" fill="#039FD4"/>
</svg>
