<svg width="34" height="34" viewBox="0 0 34 34" fill="none" xmlns="http://www.w3.org/2000/svg">
<path d="M16.3028 0.99696C15.4793 1.18748 15.7383 0.958855 8.01526 8.33195C4.00432 12.1614 0.630885 15.4129 0.517995 15.5653C0.0996353 16.1432 -0.0929428 17.0387 0.0597915 17.7373C0.292213 18.8105 1.14221 19.6361 2.29104 19.9282C2.77581 20.0425 3.1676 20.0489 3.67229 19.9346L4.05081 19.852V26.2598V32.674L4.19026 32.9153C4.26995 33.0487 4.4426 33.2138 4.58206 33.29L4.8344 33.4233H16.9934C29.0528 33.4233 29.159 33.4233 29.418 33.2963C29.5907 33.2138 29.7301 33.0804 29.8164 32.9153C29.9492 32.6676 29.9492 32.5533 29.9492 26.2598V19.852L30.3344 19.9346C31.0715 20.0997 31.7555 20.0044 32.486 19.6297C33.9735 18.874 34.4516 16.8926 33.4688 15.5526C33.3692 15.4129 29.9957 12.1614 25.9848 8.33195C19.643 2.27344 18.6469 1.34624 18.3282 1.20653C17.6508 0.914402 16.9668 0.844543 16.3028 0.99696ZM17.4516 2.9339C17.7571 3.08632 31.7555 16.4862 31.9016 16.7656C32.2735 17.4705 31.6094 18.239 30.7594 18.0865C30.5403 18.0484 29.7301 17.2991 23.9992 11.8248C16.9668 5.10583 17.3387 5.42336 16.7543 5.54402C16.5485 5.58847 15.559 6.50932 10.0008 11.8248C4.13714 17.4197 3.45979 18.0484 3.23401 18.0929C2.68948 18.1818 2.11174 17.8452 2.01878 17.3816C1.90589 16.8037 1.4676 17.261 9.18401 9.87516C13.102 6.12828 16.409 3.00376 16.5352 2.94026C16.834 2.78149 17.1461 2.78149 17.4516 2.9339ZM22.4918 13.0505L27.9571 18.2771V24.8944V31.5181H25.9649H23.9727V26.9266C23.9727 21.7191 24.0125 22.0938 23.4082 21.662C23.2289 21.5286 22.7707 21.2809 22.3989 21.1031C19.1782 19.5853 14.7953 19.5853 11.5946 21.1094C11.216 21.2873 10.7578 21.5413 10.5785 21.6683C9.98753 22.0938 10.0274 21.7318 10.0274 26.9266V31.5181H8.03518H6.04299V24.9008V18.2771L11.5016 13.0568C14.5098 10.18 16.9801 7.83025 17 7.83025C17.0199 7.83025 19.4903 10.18 22.4918 13.0505ZM18.2485 21.935C19.4106 22.0493 20.4996 22.3415 21.436 22.7733L21.9805 23.021V27.2696V31.5181H17H12.0196V27.2759V23.0337L12.5707 22.7733C14.1313 22.0366 16.243 21.7255 18.2485 21.935Z" fill="#039FD4"/>
<path d="M14.5297 16.2829C14.2441 16.4226 14.0117 16.7973 14.0117 17.1021C14.0117 17.4069 14.2309 17.7562 14.5297 17.915C14.7887 18.0547 14.8352 18.0547 16.9934 18.0547C19.0719 18.0547 19.2113 18.0483 19.457 17.9277C19.7559 17.7816 19.9883 17.4196 19.9883 17.1021C19.9883 16.7846 19.7559 16.4226 19.457 16.2765C19.2113 16.1558 19.0719 16.1495 16.9867 16.1495C14.9148 16.1558 14.7621 16.1622 14.5297 16.2829Z" fill="#039FD4"/>
</svg>
