<svg width="20" height="17" viewBox="0 0 20 17" fill="none" xmlns="http://www.w3.org/2000/svg">
<path d="M18.25 7.75018H3.28787L9.01713 2.29318C9.31713 2.00743 9.32875 1.53268 9.043 1.23268C8.75763 0.933058 8.28288 0.921058 7.9825 1.20681L1.4395 7.43931C1.15637 7.72281 1 8.09931 1 8.50018C1 8.90068 1.15637 9.27756 1.45262 9.57343L7.98287 15.7932C8.128 15.9316 8.314 16.0002 8.5 16.0002C8.698 16.0002 8.896 15.9222 9.04338 15.7673C9.32912 15.4673 9.3175 14.9929 9.0175 14.7072L3.26425 9.25018H18.25C18.664 9.25018 19 8.91418 19 8.50018C19 8.08618 18.664 7.75018 18.25 7.75018Z" fill="#AFAFAF" stroke="#AFAFAF" stroke-width="0.5"/>
</svg>
