<svg width="30" height="30" viewBox="0 0 30 30" fill="none" xmlns="http://www.w3.org/2000/svg">
<circle cx="15" cy="15" r="15" fill="#CB4F19"/>
<path fill-rule="evenodd" clip-rule="evenodd" d="M7.5 15C7.5 10.8579 10.8579 7.5 15 7.5C19.1421 7.5 22.5 10.8579 22.5 15C22.5 19.1421 19.1421 22.5 15 22.5C10.8579 22.5 7.5 19.1421 7.5 15ZM17.8741 16.916C17.6443 17.2606 17.1786 17.3538 16.834 17.1241L14.8838 15.8239C14.4878 15.5599 14.25 15.1156 14.25 14.6397V14.625V11.25C14.25 10.8358 14.5858 10.5 15 10.5C15.4142 10.5 15.75 10.8358 15.75 11.25V14.5986L17.666 15.8759C18.0106 16.1057 18.1038 16.5714 17.8741 16.916Z" fill="white"/>
</svg>
