<svg width="30" height="30" viewBox="0 0 30 30" fill="none" xmlns="http://www.w3.org/2000/svg">
<circle cx="15" cy="15" r="15" fill="#CB4F19"/>
<path d="M21.6667 10.3327V12.9993L15 15.666L8.33334 12.9993V10.3327C8.33334 10.1559 8.40358 9.9863 8.52861 9.86128C8.65363 9.73625 8.8232 9.66602 9.00001 9.66602H21C21.1768 9.66602 21.3464 9.73625 21.4714 9.86128C21.5964 9.9863 21.6667 10.1559 21.6667 10.3327ZM8.33334 14.4353V19.666C8.33334 19.8428 8.40358 20.0124 8.52861 20.1374C8.65363 20.2624 8.8232 20.3327 9.00001 20.3327H21C21.1768 20.3327 21.3464 20.2624 21.4714 20.1374C21.5964 20.0124 21.6667 19.8428 21.6667 19.666V14.4353L15 17.102L8.33334 14.4353Z" fill="white"/>
</svg>
