<svg width="30" height="30" viewBox="0 0 30 30" fill="none" xmlns="http://www.w3.org/2000/svg">
<circle cx="15" cy="15" r="15" fill="#CB4F19"/>
<path d="M20.873 18.1007C20.4263 17.2562 18.8749 16.3404 18.8066 16.3003C18.6072 16.1869 18.3992 16.1268 18.2045 16.1268C17.915 16.1268 17.6781 16.2594 17.5346 16.5006C17.3076 16.772 17.0262 17.0893 16.9579 17.1385C16.4293 17.4971 16.0154 17.4564 15.5575 16.9985L13.002 14.4428C12.547 13.9878 12.5052 13.5688 12.8614 13.0431C12.9112 12.9743 13.2285 12.6927 13.4999 12.4655C13.673 12.3625 13.7919 12.2094 13.8439 12.0216C13.9131 11.7718 13.8622 11.4779 13.6989 11.1915C13.6604 11.1257 12.7442 9.57402 11.9 9.12749C11.7425 9.04405 11.565 9 11.387 9C11.0937 9 10.8178 9.11436 10.6105 9.3215L10.0458 9.88596C9.15272 10.7788 8.82944 11.7909 9.08441 12.894C9.29711 13.8133 9.91697 14.7916 10.9271 15.8015L14.1988 19.0732C15.4772 20.3517 16.696 21 17.8214 21C17.8214 21 17.8214 21 17.8216 21C18.6493 21 19.4209 20.6482 20.1144 19.9547L20.6788 19.3903C21.0219 19.0474 21.0998 18.529 20.873 18.1007Z" fill="white"/>
</svg>
